<?xml version="1.0" encoding="iso-8859-1"?>
<!-- Generator: Adobe Illustrator 19.0.0, SVG Export Plug-In . SVG Version: 6.00 Build 0)  -->
<svg version="1.1" id="Layer_1" xmlns="http://www.w3.org/2000/svg" xmlns:xlink="http://www.w3.org/1999/xlink" x="0px" y="0px"
	 viewBox="0 0 512 512" style="enable-background:new 0 0 512 512;" xml:space="preserve">
<path style="fill:#36A9E1;" d="M432.092,79.909H114.561c-19.893,0-36.018-16.126-36.018-36.018l0,0
	c0-19.893,16.126-36.018,36.018-36.018h285.514L432.092,79.909z"/>
<polygon style="fill:#A5C6E3;" points="79.91,55.896 103.922,79.909 119.93,79.909 119.93,504.128 103.922,504.128 79.91,488.12 "/>
<rect x="119.936" y="79.915" style="fill:#1D71B8;" width="312.165" height="424.218"/>
<rect x="304.031" y="79.915" style="fill:#A5C6E3;" width="64.035" height="200.102"/>
<g>
	<path style="fill:#1D1D1B;" d="M72.037,472.112c0,21.995,17.894,39.888,39.888,39.888h328.038V72.038h-55.896v15.744h40.153
		v408.476H111.926c-13.314,0-24.144-10.832-24.144-24.144V77.534c7.626,6.391,17.443,10.247,28.146,10.247h172.09V72.038h-172.09
		c-15.52,0-28.146-12.626-28.146-28.146s12.626-28.148,28.146-28.148H408.08V0H115.928C93.077,0,74.116,17.455,72.088,39.787
		L72.037,472.112z"/>
	<rect x="103.919" y="24.012" style="fill:#1D1D1B;" width="296.148" height="15.744"/>
	<rect x="103.919" y="48.024" style="fill:#1D1D1B;" width="312.165" height="15.744"/>
	<path style="fill:#1D1D1B;" d="M375.93,300.754l-39.888-19.944l-39.888,19.944V72.038h79.776V300.754z M311.898,87.781V275.28
		l24.144-12.072l24.144,12.072V87.781H311.898z"/>
	<rect x="112.064" y="95.921" style="fill:#1D1D1B;" width="15.744" height="392.206"/>
	<rect x="151.948" y="112.063" style="fill:#1D1D1B;" width="80.041" height="15.744"/>
</g>
<g>
	<rect x="312.029" y="456.24" style="fill:#FFFFFF;" width="16.008" height="15.744"/>
	<rect x="344.052" y="456.24" style="fill:#FFFFFF;" width="16.008" height="15.744"/>
	<rect x="376.064" y="456.24" style="fill:#FFFFFF;" width="16.008" height="15.744"/>
</g>
<rect x="151.948" y="144.075" style="fill:#1D1D1B;" width="48.024" height="15.744"/>
<rect x="151.948" y="176.087" style="fill:#FFFFFF;" width="48.024" height="15.744"/>
<g>
</g>
<g>
</g>
<g>
</g>
<g>
</g>
<g>
</g>
<g>
</g>
<g>
</g>
<g>
</g>
<g>
</g>
<g>
</g>
<g>
</g>
<g>
</g>
<g>
</g>
<g>
</g>
<g>
</g>
</svg>
